<svg xmlns="http://www.w3.org/2000/svg" width="520" height="417" viewBox="0 0 5200 4173">
  <path fill="#ffe01b" stroke="#006BB6" stroke-width="73" d="M5108 1042v3008H89V1042s2475-2126 5019 0z"/>
  <path fill="#006bb6" d="M619 3110h954a590 590 0 0 0 90 93H619v-93zm4002 0v93H2164c31-32 47-55 67-93h2390zM652 3675c-20-32-32-74-32-116 0-52 14-97 40-133 30-40 62-55 102-55 80 0 148 70 148 184 0 84-41 152-100 174-1 0-6 3-6 6l2 4c10 12 16 20 24 35 14 26 22 38 48 38 8 0 17-4 23-4 4 0 7 2 7 8 0 21-56 26-66 26-23 0-47-6-67-19a84 84 0 0 1-37-66l1-12v-5c0-7-5-7-8-8-32-10-57-22-79-57zm176-16c8-25 13-60 13-88 0-65-22-180-81-180-53 0-69 90-69 146 0 39 6 82 20 116 13 34 35 64 65 64 25 0 43-29 52-58zm305 8c0 14 7 17 18 19 4 0 7 2 7 9 0 10-13 12-18 13l-42 17c-4 1-12 6-17 6-7 0-5-14-5-20 0-4 2-20-3-20-3 0-6 4-8 5-18 19-36 33-59 33-16 0-35-9-45-26-12-20-13-45-13-69v-88c0-10 0-33-4-42-4-10-12-10-20-12-4-1-10-4-10-12 0-10 8-9 13-9l37 2 37-2c5 0 6 2 6 10v148c0 13 1 32 6 43a28 28 0 0 0 24 17c10 0 23-9 30-19s6-20 6-33v-90c0-11 1-34-3-43s-12-10-20-12c-5-1-10-4-10-11 0-10 7-10 13-10l37 2 37-2c8 0 6 12 6 20v176zm207-19c0 8-3 34 9 34 4 0 6-2 10-5 2-2 6-7 10-7 2 0 4 4 4 8 0 7-6 16-10 20-12 15-27 26-44 26-16 0-24-8-30-26 0-2-3-13-7-13-5 0-30 44-70 44-23 0-41-22-41-54 0-24 7-40 22-54 10-10 32-24 46-30a110 110 0 0 0 38-25c3-3 4-4 4-6v-18c0-19 3-57-18-57-14 0-23 18-29 35-4 13-6 20-17 27-8 6-23 12-33 12-6 0-12-4-12-13 0-18 17-42 27-51 22-21 49-30 75-30 17 0 38 4 52 16 13 10 13 28 13 46v120zm-60-38c0-1 1-23-4-23-4 0-25 18-29 22a51 51 0 0 0-21 42c0 17 8 32 21 32 10 0 24-10 30-21a90 90 0 0 0 3-25v-27zm190 69c0 1 0 20 22 24 5 1 13 3 13 13 0 8-4 10-10 10l-56-2-58 1c-5 0-10 0-10-10s7-10 12-12c24-4 24-23 24-24v-259c0-30 1-36-21-40-3 0-8-2-8-9 0-10 12-11 17-12a200 200 0 0 0 53-20c4-2 10-6 15-6 9 0 7 19 7 26v321zm127-29c0 12-2 32 1 44 2 8 15 7 22 10 4 0 10 3 10 10 0 10-8 11-13 11h-100c-6 0-13 0-13-10 0-8 5-10 10-12 6-1 18-2 20-10 3-11 3-30 3-44v-80c0-24 1-37-18-40-5 0-12 0-12-10s13-11 18-13c17-6 39-20 51-37 3-4 6-10 15-10 6 0 6 14 6 20v170zm-66-253c0-26 18-42 35-42 19 0 36 15 36 42 0 28-17 45-36 45-20 0-35-17-35-45zm183 215c0 20-2 74 20 74 13 0 22-16 28-16 3 0 5 4 5 8 0 7-8 18-12 23a69 69 0 0 1-52 28c-13 0-29-8-37-23-10-17-12-41-12-62v-137c-2-6-6-7-10-7-6 0-19 2-19-7 0-8 9-12 13-14 22-13 42-33 54-60 3-8 7-19 13-19 9 0 7 13 7 20v39c0 15 3 15 13 15h21c9 0 15-3 15 10 0 16-3 16-14 16h-20c-13 0-13-1-13 21v92zm220-80c2-6 5-14 5-22 0-13-10-16-18-17-6 0-16-1-16-13 0-9 8-9 13-9l35 2 34-2c6 0 10 0 10 10 0 9-5 10-10 12-10 2-14 1-20 13-7 10-15 35-20 48l-60 177-22 72c-8 32-6 40-33 40-18 0-35-1-35-30 0-10 1-20 5-28 6-10 15-9 24-8 12 0 21 3 30-10 3-6 8-19 8-27 0-9-5-22-7-30l-60-166c-5-12-11-30-18-40-5-10-8-10-16-11-5-1-12-3-12-12 0-10 8-10 14-10l54 2 47-2c5 0 14 0 14 10 0 8-5 10-10 12s-16 2-16 13c0 7 5 19 7 25l30 85c0 2 5 17 8 17 4 0 7-14 8-18l27-83zm272-24c0 17 0 26 13 26 9 0 26 0 34-2 11-3 16-15 20-30 0-7 4-18 10-18 7 0 9 7 9 15 0 15 0 32-2 47l2 48c0 7-2 15-8 15-20 0-6-53-48-53l-18 1c-13 1-12 9-12 24v70c0 33-2 47 24 52 5 1 13 3 13 13 0 8-5 10-10 10l-62-2-58 2c-6 0-10-2-10-10 0-10 6-12 11-13 27-6 26-15 26-51v-197c0-33 1-48-25-54-5 0-12 0-12-10s4-11 10-11l111 2 78-2c10 0 13 0 13 16v53c0 7-2 15-8 15-7 0-12-14-15-21-6-14-10-22-20-30-12-7-27-7-40-7-4 0-17 0-22 4-4 3-4 13-4 19v79zm125 89c0-80 59-132 114-132 27 0 54 10 75 32a140 140 0 0 1 37 96c0 84-57 136-115 136s-110-49-110-132zm162 10c0-26-4-59-13-81-7-20-21-42-39-42-34 0-45 61-45 99 0 40 13 127 53 127 36 0 44-67 44-104zm80-10c0-80 58-132 113-132 27 0 54 10 75 32a140 140 0 0 1 37 96c0 84-57 136-115 136s-110-49-110-132zm160 10c0-26-3-59-12-81-7-20-21-42-39-42-34 0-45 61-45 99 0 40 13 127 53 127 36 0 44-67 44-104zm286 53c0 5-2 21 5 21s13-20 20-20 6 8 6 14c-1 18 1 17-10 23l-55 25c-4 2-12 6-16 6-6 0-7-6-8-13v-12c0-1-1-6-3-6-5 0-24 31-58 31-52 0-86-57-86-127 0-80 48-137 105-137 8 0 16 1 24 5 2 0 9 4 13 4v-50c0-20 4-38-15-38-5 0-14-1-14-11 0-12 17-12 22-14 20-4 38-13 55-24l6-3c8 0 9 15 9 23v302zm-63-102c0-14 1-38-4-50-6-13-15-21-26-21-37 0-48 60-48 100 0 45 17 100 55 100 6 0 17-2 23-9v-120zm460 114c-1 18 0 25-13 35a120 120 0 0 1-77 25c-36 0-77-10-106-40a210 210 0 0 1 1-275 162 162 0 0 1 173-35c10 5 10 7 13 23l3 28 2 16c0 6-4 10-8 10-18 0-20-67-74-67-27 0-51 20-66 50-16 30-22 70-22 107 0 36 6 76 20 106 15 33 40 56 68 56 16 0 30-8 42-21 12-14 20-32 27-51 2-6 5-12 10-12 9 0 8 13 8 21l-1 24zm95-102c-10 0-14-1-14 14 0 54 26 107 70 107 30 0 43-29 53-29 3 0 6 3 6 8 0 12-15 26-20 31a97 97 0 0 1-68 28c-56 0-105-57-105-135 0-80 54-129 110-129 20 0 43 9 60 26a84 84 0 0 1 25 58c0 20-9 21-23 21h-94zm46-23c10-4 15-14 15-28 0-20-11-35-26-35-13 0-25 8-33 20-6 9-12 25-12 37 0 10 8 9 14 9 10 0 32 0 42-3zm179-44c7 0 27-38 66-38 18 0 36 7 50 23 18 19 17 42 17 70v91c0 14-1 34 4 45 4 7 13 7 20 10 4 0 9 3 9 11 0 10-8 10-13 10h-98c-4 0-10-2-10-10 0-7 5-10 9-12 6-2 13-4 17-12s3-31 3-42v-80c0-15-2-36-7-49-6-13-17-20-28-20-10 0-22 7-30 16-10 13-9 25-9 43v90c0 10-1 34 3 42s10 10 17 12c4 2 8 5 8 12 0 8-5 10-10 10h-98c-5 0-12 0-12-10 0-8 5-10 10-12 6-2 14-2 18-10 6-10 5-30 5-44v-80c0-24 0-37-18-40-6 0-12 0-12-10s13-11 17-13c17-6 40-20 52-37 2-4 6-10 14-10 7 0 6 14 6 20v24zm254 109c0 20-2 74 20 74 12 0 21-16 27-16 3 0 5 4 5 8 0 7-8 18-11 23a69 69 0 0 1-52 28c-14 0-30-8-37-23-10-17-12-41-12-62v-114l-1-23c-1-6-6-7-10-7-5 0-18 2-18-7 0-8 8-12 13-14 22-13 42-33 53-60 3-8 7-19 14-19 8 0 7 13 7 20v39c0 15 2 15 13 15h20c9 0 15-3 15 10 0 16-3 16-14 16h-20c-13 0-13-1-13 21v92zm132-42c-10 0-14-1-14 14 0 54 27 107 70 107 30 0 43-29 53-29 3 0 6 3 6 8 0 12-15 26-20 31a97 97 0 0 1-68 28c-56 0-105-57-105-135 0-80 54-129 110-129 20 0 43 9 60 26a84 84 0 0 1 25 58c0 20-9 21-22 21h-95zm46-23c10-4 15-14 15-28 0-20-11-35-26-35-12 0-25 8-33 20-6 9-12 25-12 37 0 10 8 9 14 9 10 0 32 0 42-3zm176-40c7 0 24-42 57-42 17 0 34 18 34 42 0 25-15 45-33 45-26 0-29-32-40-32-20 0-18 58-18 75v54c0 13 0 33 2 45 2 8 14 7 22 10 4 0 10 3 10 10 0 10-8 11-13 11h-100c-6 0-13 0-13-10 0-8 5-10 10-12 6-1 18-2 20-10 3-10 3-30 3-44v-80c0-24 1-37-18-40-5 0-12 0-12-10s13-11 17-13c18-6 40-20 52-37 3-4 6-10 15-10 6 0 5 14 5 20v28zm98 153c0-8 0-19 10-19 17 0 12 69 64 69 16 0 40-10 40-35s-18-35-33-42c-30-12-80-32-80-84 0-55 45-84 80-84 16 0 40 5 56 10 10 4 11 6 11 22v13c0 8 0 25-8 25-6 0-11-8-14-13-13-23-18-38-42-38-14 0-32 7-32 30 0 20 18 27 29 31l22 10c29 12 58 31 58 78 0 30-13 56-30 73a90 90 0 0 1-64 23c-18 0-41-4-57-16-10-8-10-14-10-30v-23zm70-1102h36c-50 270-339 372-533 357-204-15-500-108-496-553 5-470 490-622 706-460 65 50 92 53 127 30 43-28 61-46 92-80h110l14 10v376l-13 9h-119l-14-10c-122-272-238-353-348-335-177 30-250 176-250 455 0 284 67 450 296 487a380 380 0 0 0 392-286zm-2197-705h1124l13 13v367l-13 10h-102l-13-10s-150-345-230-345h-189c-69 0-72 6-72 93v332l8 9s45 4 71 4c89 0 164-203 164-203l18-10h106l13 10v430l-13 8h-106l-18-9s-70-190-164-190c-35 0-70 4-70 4l-10 9v376c0 50 32 115 98 115h62v36h-677v-36h84c53 0 93-62 93-106v-779c0-84-5-87-66-90l-111-3v-35zM651 1025a63 63 0 1 1 47-20c66 123 230 44 181-98a63 63 0 1 1 42-10c50 140 243 75 208-72a63 63 0 1 1 45-7c7 155 211 140 206-27a63 63 0 1 1 48 1c-5 167 200 180 206 26a63 63 0 1 1 45 7c-35 148 158 213 208 72a63 63 0 1 1 41 10c-49 142 117 221 183 97a63 63 0 0 1 47-105 63 63 0 1 1-12 125l-196 354c-287-221-810-221-1094 0l-195-353h-10zm362 1115c0 474 200 634 200 634 189-65 285-73 429-36 0 0 185-221 185-598 0-1000-814-1000-814 0zm1240 0c0 558-377 730-377 730 130 98 232 38 368-96 8 61 23 478-346 478-160 0-284-165-358-280-346 36-970-81-970-832 0-1106 1683-1106 1683 0zm-846 780c57 0 88-36 88-36s-62-70-132-70c-45 0-93 17-93 17s75 89 137 89zm3157-119c31 0 56 26 56 57 0 32-25 57-56 57a56 56 0 0 1-56-57c0-31 25-57 56-57zm0 10a47 47 0 0 0-46 47c0 27 21 48 46 48s46-20 46-47-20-49-46-49zm-10 80h-10v-63l17-2c10 0 16 2 20 5s6 7 6 13c0 9-6 14-13 16 6 1 10 6 10 16 2 10 4 13 5 15h-10c-2-2-4-7-5-16-1-8-5-10-14-10h-7v26zm0-35h7c8 0 15-3 15-10 0-6-4-12-15-12h-8v22z"/>
</svg>
